<svg width="714" height="333" viewBox="0 0 714 333" fill="none" xmlns="http://www.w3.org/2000/svg">
<path fill-rule="evenodd" clip-rule="evenodd" d="M252.647 252.013C251.695 252.682 250.914 253.566 250.367 254.593C235.7 274.593 221.067 294.593 206.467 314.593C203.537 318.593 200.227 322.293 196.977 326.043C194.292 329.155 190.634 331.269 186.597 332.043C180.637 333.404 174.396 332.765 168.837 330.223C159.367 325.893 154.967 316.223 157.537 305.683C158.793 301.105 160.986 296.838 163.977 293.153C183.017 268.039 202.047 242.919 221.067 217.793C222.387 216.043 224.607 214.433 224.687 212.433C224.767 210.433 222.497 208.763 221.207 207.003C207.207 187.903 192.97 168.966 178.497 150.193C175.703 146.64 173.249 142.833 171.167 138.823C167.947 132.513 168.057 126.093 170.377 119.603C171.161 117.174 172.492 114.957 174.268 113.123C176.043 111.289 178.215 109.886 180.617 109.023C192.357 104.713 201.877 106.433 210.087 114.823C217.517 122.413 223.817 130.913 229.827 139.623C236.827 149.783 243.657 160.063 250.587 170.273C251.247 171.273 251.667 172.443 252.947 173.113L267.627 152.343C275.457 141.273 283.177 130.133 291.287 119.273C293.542 116.137 296.236 113.341 299.287 110.973C307.717 104.673 321.017 106.363 327.207 110.373C329.3 111.627 331.065 113.361 332.357 115.433C336.437 122.433 337.937 129.753 334.457 137.503C332.861 141.134 330.848 144.567 328.457 147.733C312.647 168.253 297.377 189.163 281.837 209.883C279.657 212.783 279.747 211.953 281.907 214.823C302.573 242.283 323.263 269.736 343.977 297.183C346.117 299.97 347.554 303.233 348.166 306.694C348.778 310.154 348.546 313.712 347.492 317.064C346.437 320.417 344.59 323.466 342.107 325.953C339.623 328.44 336.577 330.292 333.227 331.353C326.227 333.533 319.327 333.353 312.657 330.013C309.315 328.29 306.443 325.782 304.287 322.703C287.88 300.143 271.443 277.609 254.977 255.103C254.217 254.053 253.407 253.053 252.607 252.013" fill="#373435"/>
<path fill-rule="evenodd" clip-rule="evenodd" d="M102.977 232.762C102.977 257.782 102.977 282.806 102.977 307.833C103.053 310.257 102.879 312.683 102.457 315.072C100.457 324.802 93.2966 331.472 83.4566 332.512C80.0549 332.911 76.6114 332.762 73.2566 332.072C68.6103 331.2 64.3878 328.803 61.2579 325.26C58.1279 321.717 56.2694 317.231 55.9766 312.512C55.8066 310.432 55.8266 308.332 55.8266 306.232C55.8266 255.972 55.8266 205.706 55.8266 155.432C55.8266 150.832 56.3166 151.432 51.7666 151.432C41.8466 151.432 31.9266 151.432 21.9966 151.432C20.2366 151.473 18.4758 151.393 16.7266 151.192C8.05665 149.962 2.54665 144.612 0.586646 135.542C-0.119986 132.474 -0.189037 129.293 0.383766 126.197C0.956569 123.101 2.15903 120.155 3.91665 117.542C5.39645 115.075 7.44459 112.997 9.89033 111.482C12.3361 109.967 15.1085 109.059 17.9766 108.832C19.6166 108.682 21.2766 108.572 22.9266 108.572H135.077C138.275 108.474 141.47 108.851 144.557 109.692C148.659 110.907 152.275 113.381 154.893 116.763C157.511 120.146 159 124.267 159.147 128.542C159.29 131.188 159.112 133.84 158.617 136.442C157.087 144.052 152.517 148.692 145.047 150.552C142.359 151.176 139.605 151.461 136.847 151.402C126.847 151.402 116.817 151.402 106.757 151.402C102.657 151.402 102.987 150.892 102.987 155.052C102.987 180.966 102.987 206.872 102.987 232.772" fill="#373435"/>
<path fill-rule="evenodd" clip-rule="evenodd" d="M563.637 219.803C563.637 190.583 563.637 161.366 563.637 132.153C563.575 129.505 563.786 126.857 564.267 124.253C565.114 119.77 567.385 115.679 570.741 112.588C574.096 109.497 578.359 107.57 582.897 107.093C586.291 106.6 589.743 106.665 593.117 107.283C603.647 109.413 610.447 117.723 610.917 128.953C610.967 130.173 610.917 131.383 610.917 132.593C610.917 190.693 610.917 248.796 610.917 306.903C611.03 310.432 610.612 313.958 609.677 317.363C608.475 321.588 605.977 325.331 602.537 328.063C599.096 330.795 594.885 332.379 590.497 332.593C587.2 332.886 583.879 332.697 580.637 332.033C576.35 331.107 572.453 328.882 569.477 325.661C566.501 322.44 564.591 318.379 564.007 314.033C563.697 311.625 563.556 309.199 563.587 306.773C563.587 277.779 563.587 248.779 563.587 219.773" fill="#373435"/>
<path fill-rule="evenodd" clip-rule="evenodd" d="M701.537 36.1325C701.339 40.6398 700.122 45.0435 697.977 49.0125C695.798 52.9682 693.376 56.7855 690.727 60.4425C688.782 63.1191 687.063 65.9521 685.587 68.9125C682.587 75.3925 683.637 80.2125 689.057 84.8325C692.142 87.3357 695.561 89.3956 699.217 90.9525C701.017 91.7725 702.876 92.4725 704.696 93.2625C706.258 93.8293 707.66 94.762 708.787 95.9825C710.277 97.7825 709.856 99.5125 707.706 100.473C706.263 101.058 704.671 101.177 703.157 100.813C701.001 100.345 698.937 99.5278 697.047 98.3925C692.824 95.9947 688.262 94.2516 683.516 93.2225C676.653 91.8528 669.534 92.6027 663.107 95.3725C658.554 97.3051 654.2 99.6763 650.107 102.453C646.607 104.753 643.107 107.123 639.687 109.453C637.907 110.756 635.959 111.812 633.897 112.593C632.747 112.969 631.566 113.236 630.367 113.393C629.928 113.5 629.466 113.46 629.053 113.279C628.639 113.099 628.296 112.787 628.076 112.393C627.586 111.443 628.187 110.693 628.817 110.073C629.443 109.455 630.134 108.905 630.877 108.433C640.607 102.563 646.617 93.5125 651.777 83.7825C653.427 80.6725 652.417 78.3325 649.147 76.7825C647.926 76.2732 646.651 75.9074 645.347 75.6925C639.847 74.5659 634.353 73.3959 628.867 72.1825C627.682 71.9554 626.52 71.6207 625.397 71.1825C622.717 70.0925 621.397 68.4625 621.937 67.0025C622.477 65.5425 624.146 64.9025 626.826 65.1825C627.586 65.2625 628.347 65.4425 629.107 65.5825C641.187 67.7325 653.227 67.8825 665.107 64.5825C674.917 61.8725 683.417 57.0525 689.747 48.8725C693.221 44.292 695.7 39.0365 697.027 33.4425C697.397 31.9325 697.487 29.5925 699.567 29.8025C701.367 29.9725 700.987 32.2425 701.317 33.6725C701.441 34.4631 701.504 35.2622 701.507 36.0625" fill="#373435"/>
<path fill-rule="evenodd" clip-rule="evenodd" d="M713.587 13.6625C713.591 15.4792 713.235 17.2788 712.541 18.9575C711.846 20.6362 710.826 22.1608 709.539 23.4436C708.253 24.7263 706.725 25.7419 705.045 26.4316C703.364 27.1214 701.563 27.4717 699.747 27.4625C696.105 27.4784 692.607 26.0471 690.021 23.4835C687.434 20.9198 685.973 17.4339 685.957 13.7925C685.941 10.1511 687.372 6.65245 689.936 4.06632C692.499 1.4802 695.985 0.0183775 699.627 0.0024645C701.446 -0.0319991 703.254 0.295294 704.946 0.96534C706.638 1.63539 708.18 2.63484 709.482 3.90568C710.785 5.17651 711.822 6.6934 712.533 8.36831C713.245 10.0432 713.616 11.8428 713.627 13.6625" fill="#ED3237"/>
<path fill-rule="evenodd" clip-rule="evenodd" d="M233.587 64.6626C233.587 67.0926 233.507 69.5126 233.587 71.9326C233.671 72.5304 233.52 73.1376 233.166 73.6263C232.811 74.115 232.281 74.4471 231.687 74.5526C226.454 76.3935 220.789 76.62 215.427 75.2026C212.85 74.5309 210.484 73.223 208.544 71.3989C206.605 69.5748 205.155 67.293 204.327 64.7626C202.593 60.0725 202.449 54.9425 203.917 50.1626C204.908 46.5193 207.071 43.3032 210.07 41.01C213.07 38.7169 216.741 37.4739 220.517 37.4726C223.711 37.2948 226.914 37.6016 230.017 38.3826C231.377 38.7626 232.117 39.3826 231.777 40.9626C231.537 42.0926 231.117 42.4826 229.987 41.9626C227.436 40.9755 224.708 40.5327 221.977 40.6626C213.587 40.6626 207.827 45.8826 206.977 54.2626C206.782 56.0138 206.782 57.7813 206.977 59.5326C207.977 67.8726 213.527 72.6726 221.977 72.6826C223.958 72.761 225.941 72.5828 227.877 72.1526C229.237 71.7926 229.957 71.2326 229.877 69.6926C229.797 66.5026 229.817 63.3026 229.877 60.1126C229.877 58.8526 229.427 58.3126 228.157 58.3426C226.397 58.3426 224.627 58.3426 222.867 58.3426C221.577 58.3426 221.147 57.8126 221.177 56.5726C221.207 55.3326 221.727 55.0526 222.797 55.0626C225.877 55.0626 228.967 55.0626 232.047 55.0626C233.177 55.0626 233.597 55.5926 233.587 56.6826C233.587 59.3226 233.587 61.9626 233.587 64.6026V64.6626Z" fill="#383536"/>
<path fill-rule="evenodd" clip-rule="evenodd" d="M320.907 52.1024C320.907 55.5124 320.967 58.9324 320.907 62.3424C320.667 73.4624 310.367 79.5624 300.367 74.5124C298.723 73.7132 297.298 72.5266 296.214 71.0546C295.131 69.5826 294.421 67.8694 294.147 66.0624C293.865 64.6562 293.718 63.2265 293.707 61.7924C293.657 54.6324 293.707 47.4724 293.707 40.3024C293.707 39.2124 293.507 38.0724 295.227 37.9924C297.157 37.9124 297.517 38.0924 297.527 40.1024C297.527 47.1557 297.527 54.2057 297.527 61.2524C297.472 63.0169 297.699 64.7788 298.197 66.4724C299.507 70.5824 302.837 72.7624 307.617 72.7124C312.157 72.6524 315.377 70.3824 316.617 66.3324C317.072 64.74 317.284 63.0881 317.247 61.4324C317.247 54.2724 317.247 47.1124 317.197 39.9524C317.197 38.2124 317.897 37.9524 319.357 37.9524C320.817 37.9524 320.967 38.7124 320.967 39.8324C320.967 43.9124 320.967 47.9924 320.967 52.0724" fill="#383536"/>
<path fill-rule="evenodd" clip-rule="evenodd" d="M667.187 61.3525C665.894 61.3871 664.608 61.164 663.402 60.6963C662.197 60.2286 661.097 59.5256 660.166 58.6283C659.235 57.731 658.493 56.6574 657.981 55.47C657.469 54.2827 657.199 53.0053 657.187 51.7125C657.158 50.3883 657.397 49.0719 657.889 47.8419C658.38 46.6119 659.115 45.4937 660.048 44.5538C660.981 43.6139 662.094 42.8717 663.321 42.3715C664.547 41.8713 665.862 41.6234 667.187 41.6425C668.507 41.5972 669.823 41.8178 671.057 42.291C672.29 42.7643 673.416 43.4806 674.367 44.3975C675.318 45.3143 676.076 46.413 676.594 47.6283C677.112 48.8435 677.381 50.1505 677.385 51.4717C677.388 52.7929 677.126 54.1013 676.613 55.3191C676.101 56.537 675.35 57.6395 674.403 58.5612C673.456 59.4828 672.334 60.2049 671.103 60.6844C669.872 61.1639 668.557 61.3911 667.237 61.3525" fill="#ED3237"/>
<path fill-rule="evenodd" clip-rule="evenodd" d="M482.597 127.462C478.757 117.042 468.147 104.552 450.147 104.852V104.832C446.91 104.761 443.681 105.192 440.577 106.112C428.557 109.842 420.967 118.392 416.717 129.642C402.134 168.256 387.729 206.934 373.324 245.614C369.05 257.091 364.776 268.567 360.497 280.042C360.341 280.461 360.185 280.88 360.029 281.299C356.953 289.549 353.878 297.8 351.337 306.232C350.344 309.166 350.11 312.304 350.657 315.352C352.207 322.762 356.687 327.712 363.487 330.662C368.829 332.861 374.717 333.367 380.357 332.112C383.468 331.564 386.399 330.265 388.896 328.329C391.392 326.394 393.38 323.879 394.687 321.002C395.496 319.315 396.181 317.57 396.737 315.782C398.391 310.635 400.019 305.477 401.649 300.317C402.739 296.865 403.829 293.413 404.927 289.962C405.707 287.492 405.737 287.492 408.337 287.492H491.687C493.153 287.492 493.787 287.424 494.166 287.703C494.567 287.998 494.682 288.683 495.197 290.252C496.541 294.411 497.865 298.587 499.187 302.756C500.096 305.625 501.004 308.489 501.917 311.342C502.931 314.717 504.233 317.999 505.807 321.152C507.317 324.241 509.586 326.896 512.402 328.869C515.218 330.842 518.488 332.068 521.907 332.432C524.424 332.761 526.97 332.804 529.497 332.562C541.517 331.522 549.547 321.782 548.217 309.862C547.768 306.473 546.926 303.147 545.707 299.952C545.22 298.579 544.735 297.205 544.25 295.831C542.462 290.766 540.675 285.705 538.827 280.662C520.173 229.569 501.43 178.502 482.597 127.462ZM469.18 211.15C462.939 191.893 456.72 172.703 450.497 153.512H449.537C439.577 183.726 429.597 214.032 419.597 244.432H479.967C476.361 233.308 472.767 222.218 469.18 211.15Z" fill="#373435"/>
<path fill-rule="evenodd" clip-rule="evenodd" d="M378.607 45.7124C376.912 49.069 376.077 52.7936 376.177 56.5524V56.6024C376.067 60.5785 376.935 64.5208 378.707 68.0824C381.627 73.5724 386.207 76.0824 392.467 76.0824C398.727 76.0824 403.767 73.8224 406.567 68.0824C408.353 64.6453 409.297 60.8336 409.323 56.9604C409.35 53.0872 408.456 49.2631 406.717 45.8024C403.957 40.1224 399.327 37.4724 392.867 37.4124C386.407 37.3524 381.607 40.0124 378.607 45.7124ZM382.617 46.4525C380.779 49.5605 379.882 53.1351 380.037 56.7426L380.057 56.7326C379.903 60.4197 380.854 64.0688 382.787 67.2126C387.537 74.6726 398.037 74.7926 402.537 67.2126C404.522 64.0702 405.575 60.4294 405.575 56.7126C405.575 52.9957 404.522 49.3549 402.537 46.2126C397.977 38.5126 387.257 38.7525 382.617 46.4525Z" fill="#383536"/>
<path fill-rule="evenodd" clip-rule="evenodd" d="M270.067 59.2224C269.394 58.0245 268.405 57.035 267.207 56.3624L267.187 56.3024C267.463 56.1785 267.736 56.0612 268.004 55.946C268.665 55.6615 269.296 55.3898 269.887 55.0624C271.022 54.4845 272.006 53.6476 272.758 52.6191C273.51 51.5907 274.01 50.3997 274.217 49.1424C275.227 43.1424 271.747 38.6224 265.747 38.1424C263.734 37.9884 261.71 37.9923 259.686 37.9961C258.292 37.9987 256.898 38.0013 255.507 37.9524C253.987 37.9524 253.677 38.6024 253.677 39.9524C253.737 51.0824 253.757 62.2124 253.677 73.3424C253.667 74.9924 254.057 75.4224 255.747 75.4024C257.437 75.3824 257.437 74.4624 257.437 73.2624C257.437 71.792 257.449 70.3217 257.461 68.8517C257.486 65.9128 257.51 62.9754 257.437 60.0424C257.387 58.2424 258.087 57.8224 259.737 57.8224C264.577 57.7824 265.807 58.4924 267.807 63.0224C268.523 64.6905 269.234 66.3671 269.945 68.0447C270.564 69.5049 271.183 70.9658 271.807 72.4224C273.217 75.7124 273.217 75.7124 277.067 74.8924C274.733 69.6457 272.4 64.4224 270.067 59.2224ZM257.448 46.3731C257.442 46.8887 257.437 47.405 257.437 47.9224L257.497 47.8524V52.8524C257.507 53.6724 257.627 54.4824 258.677 54.4824C261.667 54.6224 264.727 54.5924 267.367 53.1324C270.007 51.6724 271.037 49.0824 270.367 45.7824C269.857 43.2724 268.197 41.8124 265.197 41.5024C264.078 41.3807 262.937 41.3698 261.785 41.3588C260.949 41.3509 260.108 41.3429 259.267 41.2924C257.757 41.2224 257.387 41.9624 257.437 43.2924C257.47 44.3183 257.459 45.3442 257.448 46.3731Z" fill="#393637"/>
<path fill-rule="evenodd" clip-rule="evenodd" d="M340.447 40.2724V56.4624H340.467V72.6524C340.467 74.1418 340.467 74.7861 340.788 75.0833C341.058 75.3329 341.554 75.3377 342.467 75.3924C344.399 75.5061 344.359 74.3971 344.318 73.2612C344.313 73.0976 344.307 72.9335 344.307 72.7724C344.307 71.5261 344.318 70.2799 344.329 69.0332C344.351 66.5387 344.373 64.0428 344.307 61.5424C344.267 59.8924 344.697 59.1724 346.507 59.2824C348.813 59.4827 351.136 59.3105 353.387 58.7724C358.867 57.3024 361.727 53.2224 361.247 47.4224C360.777 41.8824 357.327 38.4924 351.557 38.1324C350.051 38.0561 348.547 38.0549 347.038 38.0536C345.582 38.0524 344.12 38.0512 342.647 37.9824C340.867 37.9024 340.447 38.6024 340.447 40.2724ZM350.547 41.3426H348.547L348.617 41.3126C347.951 41.3483 347.283 41.3483 346.617 41.3126C344.997 41.1426 344.187 41.6126 344.317 43.4626C344.397 44.9219 344.37 46.39 344.343 47.8611C344.33 48.5978 344.317 49.3352 344.317 50.0726C344.317 56.7926 344.537 56.9726 351.367 55.6226C352.124 55.4941 352.87 55.3035 353.597 55.0526C354.967 54.5759 356.1 53.5867 356.757 52.2926C359.387 47.1426 356.277 41.6526 350.547 41.3426Z" fill="#383536"/>
</svg>
